<?xml version="1.0" encoding="utf-8"?>
<!-- Generator: Adobe Illustrator 16.0.0, SVG Export Plug-In . SVG Version: 6.00 Build 0)  -->
<!DOCTYPE svg PUBLIC "-//W3C//DTD SVG 1.1//EN" "http://www.w3.org/Graphics/SVG/1.1/DTD/svg11.dtd">
<svg version="1.1" id="Layer_1" xmlns="http://www.w3.org/2000/svg" xmlns:xlink="http://www.w3.org/1999/xlink" x="0px" y="0px"
	 width="900px" height="130px" viewBox="0 0 900 130" enable-background="new 0 0 900 130" xml:space="preserve">
<g>
	<path fill-rule="evenodd" clip-rule="evenodd" fill="#A7CD3A" d="M620.631,98.228c7.5,0.457,14.989,1.005,22.557,0.791
		c5.768,1.522,11.816,0.454,17.726,0.688c6.842,0.717,13.76,1.249,20.654,0.667c15.993-1.347,32.119-1.479,48.19-2.078
		c14.276-0.529,28.523,0.285,42.74,0.796c14.16,0.507,28.266,1.598,42.371,2.559c15.581,1.063,30.701,3.499,45.811,5.868
		c9.063,1.422,18.191,2.873,26.377,5.769c-1.814,0.959-4.141,1.558-6.348,1.377c-15.139-1.242-30.306,0.193-45.513-0.191
		c-15.853-0.398-31.986-0.011-47.99,0.259c-14.85,0.251-29.721,0.022-44.584,0.064c-13.521,0.038-27.079-0.021-40.553-0.225
		c-20.009-0.304-40.006,0.252-60.033-0.139c-15.669-0.306-31.58-0.146-47.366,0.331c-15.065,0.456-30.127-0.387-45.221-0.055
		c-14.973,0.328-30.035,0.202-44.966-0.127c-18.548-0.409-37.063,0.232-55.619-0.135c-15.665-0.313-31.571,0.035-47.364,0.283
		c-15.063,0.235-30.143,0.043-45.216,0.06c-14.995,0.016-30.035,0.072-44.972-0.217c-18.753-0.363-37.481,0.247-56.249-0.139
		c-15.875-0.328-31.992,0.06-47.996,0.303c-14.854,0.226-29.722,0.07-44.585,0.043c-14.573-0.026-29.126-0.379-43.726-0.109
		c-13.491,0.248-27.029-0.057-40.556,0.01c-13.726,0.069-27.453-0.193-41.195,0.06c-12.323,0.226-24.668,0.049-37.003,0.05
		c0-2.252,0-4.503,0-6.755c10.094-2.094,20.627-3.13,31.01-4.528c15.362-2.068,31.062-2.252,46.639-3.201
		c21.752-1.324,43.33-1.038,65.015,0.079c4.767,0.245,5.6,1.496,5.204,3.79c-2.472-0.006-4.949-0.068-7.412,0.017
		c-0.718,0.025-1.867,0.405-1.995,0.735c-0.265,0.684,0.754,1.241,1.801,1.248c8.279,0.051,16.645,0.782,26.113-0.597
		c-4.723-1.683-8.729-0.664-12.219-1.453c0.354-1.339-1.104-3.135,2.764-3.559c14.564-1.598,28.98-3.604,43.737-4.66
		c9.065-0.647,18.317-0.697,27.183-2.249c19.894-0.374,39.793-1.145,59.678-1.028c33.31,0.193,66.583,1.145,99.486,4.65
		c1.427,0.154,2.914,0.105,4.375,0.15c4.064,0.594,8.082,1.362,12.202,1.749c11.936,1.121,23.35,4.272,35.732,3.552
		c9.138-0.534,18.188-1.894,27.323-2.087c26.353-0.557,52.593-2.386,78.987-2.379C570.629,98.271,595.629,98.24,620.631,98.228z"/>
	<path fill-rule="evenodd" clip-rule="evenodd" fill="#8BC441" d="M0.003,114.79c12.335-0.001,24.68,0.176,37.003-0.05
		c13.742-0.253,27.469,0.01,41.195-0.06c13.527-0.066,27.065,0.238,40.556-0.01c14.6-0.27,29.153,0.083,43.726,0.109
		c14.863,0.027,29.731,0.183,44.585-0.043c16.004-0.243,32.121-0.631,47.996-0.303c18.767,0.386,37.496-0.225,56.249,0.139
		c14.937,0.289,29.977,0.232,44.972,0.217c15.073-0.017,30.153,0.176,45.216-0.06c15.793-0.248,31.7-0.596,47.364-0.283
		c18.555,0.367,37.071-0.274,55.619,0.135c14.931,0.329,29.993,0.455,44.966,0.127c15.094-0.332,30.155,0.511,45.221,0.055
		c15.786-0.477,31.697-0.637,47.366-0.331c20.027,0.391,40.024-0.165,60.033,0.139c13.474,0.204,27.032,0.263,40.553,0.225
		c14.863-0.042,29.734,0.187,44.584-0.064c16.004-0.27,32.138-0.657,47.99-0.259c15.207,0.385,30.374-1.051,45.513,0.191
		c2.207,0.181,4.533-0.418,6.348-1.377c4.699-0.215,7.923,2.488,12.632,2.254c0,4.503,0,9.005,0,13.508
		c-299.895,0-599.79,0-899.685,0C0.003,124.295,0.003,119.543,0.003,114.79z"/>
	<path fill-rule="evenodd" clip-rule="evenodd" fill="#77BD47" d="M0.003,129.049c299.896,0,599.791,0,899.685,0
		c0,2.501,1.643,5.979-0.464,7.229c-2.104,1.251-7.961,0.275-12.173,0.275c-293.154,0-586.311-0.018-879.466,0.105
		c-6.482,0.003-8.94-0.751-7.63-4.614C0.281,131.083,0.003,130.049,0.003,129.049z"/>
	<path fill-rule="evenodd" clip-rule="evenodd" fill="#77BD47" d="M899.688,115.541c-4.709,0.234-7.933-2.469-12.632-2.254
		c-8.186-2.896-17.313-4.347-26.377-5.769c-15.109-2.369-30.229-4.806-45.811-5.868c-14.105-0.961-28.211-2.052-42.371-2.559
		c-14.217-0.511-28.464-1.325-42.74-0.796c-16.071,0.6-32.197,0.731-48.19,2.078c-6.895,0.582-13.813,0.05-20.654-0.666
		c-0.006-1.344-0.012-2.688-0.019-4.032c34.999-4.413,70.371-7.107,106.122-7.903c17.219-0.383,34.456-0.446,51.686-0.655
		c0.017,0.974,0.03,1.947,0.045,2.922c-1.902,0.231-3.804,0.463-5.705,0.695c5.744,1.845,11.463,0.948,17.301,0.216
		c-2.134-0.306-4.266-0.61-6.397-0.917c0.066-0.827,0.135-1.655,0.204-2.483c25.301,0.063,50.495,1.033,75.539,3.227
		C899.688,99.03,899.688,107.286,899.688,115.541z"/>
	<path fill-rule="evenodd" clip-rule="evenodd" fill="#8BC441" d="M227.843,93.657c-8.866,1.552-18.117,1.602-27.183,2.249
		c-14.757,1.056-29.173,3.063-43.737,4.66c-3.868,0.424-2.41,2.22-2.764,3.561c-2.096,0.016-4.192,0.031-6.289,0.048
		c0.396-2.294-0.437-3.545-5.204-3.79c-21.685-1.117-43.262-1.403-65.015-0.079c-15.577,0.949-31.277,1.133-46.639,3.201
		c-10.383,1.398-20.916,2.435-31.01,4.528c0-5.252,0-10.505,0-15.759c13.65-0.053,27.017-1.77,40.575-2.438
		c27.383-1.35,54.793-1.949,82.255-1.956c1.674,0,3.35-0.056,5.025-0.085c1.284,1.363,7.161,1.802,2.501,4.395
		c-0.249,0.138-0.073,0.864,0.271,1.01c4.003,1.682,8.048,4.304,13.189,3.173c5.461-1.203,10.416-1.063,15.833-0.476
		c5.832,0.632,8.39-0.952,8.343-4.641c-0.009-0.751,0.197-1.491,1.238-2.034C188.866,90.262,208.553,91.036,227.843,93.657z"/>
	<path fill-rule="evenodd" clip-rule="evenodd" fill="#8BC441" d="M620.631,98.228c-25.002,0.013-50.002,0.044-75.004,0.037
		c-26.395-0.007-52.635,1.822-78.987,2.379c-9.136,0.193-18.186,1.553-27.323,2.087c-12.382,0.721-23.797-2.431-35.732-3.552
		c-4.12-0.387-8.137-1.155-12.202-1.749c10.95-1.689,22.232-2.02,33.391-2.855c3.302-0.248,6.714-0.035,9.854-0.888
		c2.357,1.032,4.732-0.089,7.1,0.016c26.019-1.111,52.068-1.759,78.151-1.29c33.206,0.596,66.301,2.018,99.104,5.303
		C619.564,97.773,620.083,98.052,620.631,98.228z"/>
	<path fill-rule="evenodd" clip-rule="evenodd" fill="#3B7F3F" d="M818.747,90.039c1.731-0.003,3.464-0.004,5.196-0.006
		c2.134,0.307,4.266,0.611,6.399,0.917c-5.838,0.732-11.557,1.629-17.301-0.216C814.943,90.502,816.845,90.271,818.747,90.039z"/>
</g>
<path fill-rule="evenodd" clip-rule="evenodd" fill="#3B7F3F" d="M656.809,90.429c-4.842-1.195-8.422-6.629-12.765-9.577
	c-2.22-1.507-1.755-6.013,0.873-6.825c3.254-1.007,4.284-4.154,4.48-8.373c0.284-6.094,4.015-8.102,6.051-8.181
	c6.119-0.24,12.436,0.474,17.09,8.698c1.848,3.264,2.716,13.675,0.383,15.231c-3.937,2.622-6.352,10.2-11.494,8.692
	C659.836,88.44,658.346,90.271,656.809,90.429z"/>
<path fill-rule="evenodd" clip-rule="evenodd" fill="#8BC441" d="M656.809,90.429c1.537-0.157,3.027-1.988,4.618-0.334
	c0.048,1.232,0.094,2.465,0.142,3.703c0.005,2.657,0.011,5.313,0.014,7.966c-4.424-0.464-8.953,1.644-13.271-1.361
	c1.486-2.072,3.389-2.339,5.213-2.892C656.052,96.739,657.473,94.791,656.809,90.429z"/>
<path fill-rule="evenodd" clip-rule="evenodd" fill="#3B7F3F" d="M818.66,78.064c-6.598,0.122-11.285-4.883-16.25-8.938
	c-2.682-2.192-7.735-0.842-7.87-6.888c-0.127-5.694,4.718-4.362,6.989-6.666c7.622-7.744,22.333-9.586,31.364-3.926
	c3.239,2.033,6.037,5.187,10.005,5.583c2.186,0.218,3.899,2.294,3.604,4.816c-0.275,2.351-0.707,5.664-3.656,5.789
	c-2.854,0.127-3.974,2.036-5.392,4.781c-3.17,6.155-8.714,3.333-13.325,3.957C822.067,75.821,820.479,77.539,818.66,78.064z"/>
<path fill-rule="evenodd" clip-rule="evenodd" fill="#8BC441" d="M818.66,78.064c1.818-0.525,3.407-2.243,5.469-1.492
	c0.071,2.851,0.147,5.696,0.226,8.544c-0.072,1.767-0.144,3.533-0.219,5.302c-1.833,0.006-3.668,0.006-5.505,0.011
	c-0.014-2.076-0.029-4.157-0.047-6.236C818.61,82.151,818.635,80.105,818.66,78.064z"/>
<path fill-rule="evenodd" clip-rule="evenodd" fill="#3B7F3F" d="M314.216,85.41c-4.425,0.086-7.569-3.438-10.898-6.294
	c-1.798-1.543-5.188-0.592-5.278-4.85c-0.085-4.009,3.164-3.071,4.688-4.692c5.112-5.453,14.978-6.751,21.035-2.766
	c2.172,1.433,4.049,3.652,6.71,3.933c1.466,0.153,2.615,1.614,2.417,3.39c-0.185,1.656-0.474,3.988-2.452,4.075
	c-1.915,0.09-2.665,1.435-3.616,3.367c-2.126,4.334-5.844,2.347-8.937,2.787C316.5,83.831,315.435,85.04,314.216,85.41z"/>
<path fill-rule="evenodd" clip-rule="evenodd" fill="#8BC441" d="M314.216,85.41c1.219-0.37,2.285-1.579,3.667-1.05
	c0.048,2.007,0.099,4.011,0.151,6.015c-0.048,1.245-0.096,2.488-0.147,3.734c-1.229,0.004-2.46,0.004-3.692,0.007
	c-0.009-1.461-0.02-2.928-0.031-4.392C314.182,88.288,314.199,86.848,314.216,85.41z"/>
<g>
	<g>
		<path fill="#A7CD3A" d="M138.25,107.052c0.052,0,0.104,0,0.156,0c1.935,0,1.935-3,0-3c-0.052,0-0.104,0-0.156,0
			C136.315,104.052,136.315,107.052,138.25,107.052L138.25,107.052z"/>
	</g>
</g>
<g>
	<g>
		<path fill="#A7CD3A" d="M138.75,106.938c2.378-0.059,4.736,0.262,7.117,0.251c1.848-0.009,2.865,0.54,4.578-0.19
			c1.269-0.54,0.763-2.407-0.358-2.741c-0.979-0.291-1.305-0.309-2.267,0.039c-1.26,0.455-1.592,2.609,0,2.893
			c3.251,0.579,6.688-0.364,9.993-0.364c1.935,0,1.935-3,0-3c-2.812,0-6.462,0.958-9.195,0.472c0,0.964,0,1.929,0,2.893
			c0.224-0.013,0.447-0.026,0.671-0.039c-0.119-0.914-0.239-1.827-0.358-2.741c-0.762,0.324-3.463-0.218-4.297-0.214
			c-1.97,0.009-3.91-0.306-5.883-0.257C136.819,103.985,136.814,106.985,138.75,106.938L138.75,106.938z"/>
	</g>
</g>
<g>
	<g>
		<path fill="#A7CD3A" d="M168.024,105.358c-2.775-0.913-5.67-0.325-8.524-0.434c0.133,0.982,0.266,1.964,0.399,2.946
			c1.111-0.452,2.229-0.474,3.414-0.478c1.935-0.006,1.935-3,0-3c-1.604,0-3.208,0-4.813,0c-1.935,0-1.935,3,0,3
			c1.604,0,3.208,0,4.813,0c0-1,0-2,0-3c-1.431,0.004-2.87,0.039-4.211,0.585c-1.521,0.618-1.388,2.879,0.399,2.946
			c2.567,0.098,5.237-0.493,7.726,0.326C169.069,108.857,169.853,105.96,168.024,105.358L168.024,105.358z"/>
	</g>
</g>
<path fill-rule="evenodd" clip-rule="evenodd" fill="#8BC441" d="M148.046,102.091c2.13-0.545,3.992-2.322,6.407-1.544
	c0.083,2.953,0.172,5.9,0.265,8.851c-0.084,1.831-0.168,3.662-0.257,5.494c-2.147,0.006-4.298,0.006-6.45,0.011
	c-0.016-2.15-0.034-4.308-0.055-6.461C147.988,106.327,148.017,104.207,148.046,102.091z"/>
<path fill-rule="evenodd" clip-rule="evenodd" fill="#3B7F3F" d="M147.055,102.753c-6.688,0.128-11.439-5.058-16.472-9.261
	c-2.718-2.271-7.841-0.87-7.978-7.137c-0.128-5.897,4.782-4.52,7.084-6.904c7.726-8.023,22.638-9.933,31.792-4.068
	c3.283,2.106,6.12,5.374,10.142,5.785c2.215,0.226,3.953,2.375,3.652,4.988c-0.279,2.437-0.716,5.868-3.705,5.997
	c-2.894,0.133-4.028,2.11-5.466,4.956c-3.213,6.375-8.832,3.451-13.506,4.099C150.508,100.431,148.898,102.209,147.055,102.753z"/>
</svg>
