<?xml version="1.0" encoding="utf-8"?>
<!-- Generator: Adobe Illustrator 16.0.0, SVG Export Plug-In . SVG Version: 6.00 Build 0)  -->
<!DOCTYPE svg PUBLIC "-//W3C//DTD SVG 1.1//EN" "http://www.w3.org/Graphics/SVG/1.1/DTD/svg11.dtd">
<svg version="1.1" id="Layer_1" xmlns="http://www.w3.org/2000/svg" xmlns:xlink="http://www.w3.org/1999/xlink" x="0px" y="0px"
	 width="900px" height="130px" viewBox="0 0 900 130" enable-background="new 0 0 900 130" xml:space="preserve">
<g>
	<path fill-rule="evenodd" clip-rule="evenodd" fill="#86C243" d="M0.618,123.821c0-4.119,0-8.237,0-12.356
		c9.294,0.001,18.588,0.003,27.882,0.004c11.148,0,22.296,0,33.445,0c10.324,0,20.649,0,30.974,0c10.634,0,21.267,0,31.9,0
		c10.557,0,21.113,0,31.669,0c10.222,0,20.443,0,30.665,0c10.427,0,20.855,0,31.283,0c10.839,0,21.679,0,32.518,0
		c10.428,0,20.855,0,31.283,0c10.325,0,20.649,0,30.974,0c10.531,0,21.062,0,31.592,0c10.634,0,21.267,0,31.901,0
		c10.324,0,20.648,0,30.973,0c12.152,0,24.304,0,36.456,0c10.53,0,21.062,0,31.592,0c10.428,0,20.855,0,31.282,0
		c10.429,0,20.856,0,31.283,0c10.634,0,21.268,0,31.901,0c10.427,0,20.854,0,31.282,0c10.53,0,21.062,0,31.592,0
		c10.428,0,20.854,0,31.282,0c10.634,0,21.268,0,31.901,0c10.35,0,20.7,0,31.051,0c11.046,0,22.091,0,33.137,0
		c10.428,0,20.854,0,31.282,0c9.604,0,19.208,0,28.812,0c11.767,0,23.532,0,35.299,0c8.187,0,16.373,0.021,24.559-0.025
		c1.114-0.006,2.596,0.59,3.085-1.186c5.835,0.964,11.627,2.13,17.337,3.679c0,3.295,0,6.59,0,9.885
		C600.746,123.821,300.682,123.821,0.618,123.821z"/>
	<path fill-rule="evenodd" clip-rule="evenodd" fill="#A9CE39" d="M883.473,110.258c-0.489,1.775-1.971,1.18-3.085,1.186
		c-8.186,0.046-16.372,0.025-24.559,0.025c-11.767,0-23.532,0-35.299,0c-9.604,0-19.208,0-28.812,0c-10.428,0-20.854,0-31.282,0
		c-11.046,0-22.091,0-33.137,0c-10.351,0-20.701,0-31.051,0c-10.634,0-21.268,0-31.901,0c-10.428,0-20.854,0-31.282,0
		c-10.53,0-21.062,0-31.592,0c-10.428,0-20.855,0-31.282,0c-10.634,0-21.268,0-31.901,0c-10.427,0-20.854,0-31.283,0
		c-10.427,0-20.854,0-31.282,0c-10.53,0-21.062,0-31.592,0c-12.152,0-24.304,0-36.456,0c-10.325,0-20.649,0-30.973,0
		c-10.634,0-21.267,0-31.901,0c-10.53,0-21.061,0-31.592,0c-10.325,0-20.649,0-30.974,0c-10.427,0-20.855,0-31.283,0
		c-10.839,0-21.679,0-32.518,0c-10.427,0-20.855,0-31.283,0c-10.222,0-20.443,0-30.665,0c-10.557,0-21.113,0-31.669,0
		c-10.633,0-21.267,0-31.9,0c-10.325,0-20.649,0-30.974,0c-11.148,0-22.296,0-33.445,0c-9.294-0.001-18.588-0.003-27.882-0.004
		c0-1.441,0-2.884,0-4.325c1.774-0.619,3.656-0.463,5.469-0.754c12.337-1.983,24.792-2.938,37.214-4.103
		c10.501-0.985,21.059-1.459,31.604-1.884c9.541-0.385,19.097,0.153,28.649-0.59c4.991-0.389,10.037,0.14,15.063,0.399
		c9.12,0.47,18.275-0.066,27.412,0.656c2.339,0.186,3.179,0.885,2.889,3.095c-3.706,0-7.412,0-11.285,0
		c2.981,2.11,25.526,2.63,28.664,0.451c-4.018-0.42-7.706,0.196-11.263-0.646c-0.217-2.109,0.672-2.883,2.835-2.859
		c5.124,0.054,10.205-0.816,15.277-1.355c14.163-1.508,28.32-2.712,42.571-3.074c4.328-0.109,8.816,0.157,13.089-1.173
		c11.527,0.444,23.027-0.581,34.549-0.594c30.943-0.034,61.872-0.283,92.799,1.728c11.975,0.779,23.982,1.599,35.998,1.976
		c6.313,0.702,12.628,1.385,18.938,2.109c7.832,0.899,15.64,2.099,23.537,2.267c6.882,0.146,13.717-0.923,20.576-1.136
		c10.361-0.32,20.711-0.853,31.066-1.216c12.497-0.437,24.999-1.104,37.494-1.229c30.785-0.308,61.575-0.103,92.363-0.131
		c1.864-0.002,3.69,0.126,5.493,0.586c7.608,0.013,15.216,0.025,22.824,0.039c3.891,0.182,7.782,0.362,11.674,0.543
		c2.075,0.009,4.15,0.018,6.225,0.025c7.756,1.493,15.624,0.941,23.366,0.493c10.23-0.592,20.477-1.236,30.703-1.514
		c24.668-0.67,49.347-0.157,73.991,1.185c3.784,0.206,7.584,0.263,11.36,0.57c10.724,0.877,21.498,1.053,32.19,2.411
		c9.748,1.238,19.532,2.201,29.271,3.512C870,107.841,876.725,109.135,883.473,110.258z"/>
	<path fill-rule="evenodd" clip-rule="evenodd" fill="#78BD47" d="M0.618,123.821c300.064,0,600.128,0,900.192,0
		c0,2.265,0.884,5.41-0.248,6.546c-1.129,1.133-4.279,0.251-6.543,0.251c-296.669,0-593.338-0.006-890.006,0.079
		c-2.909,0.001-3.968-0.567-3.427-3.484C0.788,126.118,0.618,124.954,0.618,123.821z"/>
	<path fill-rule="evenodd" clip-rule="evenodd" fill="#86C243" d="M53.106,90.583c0.83,2.22,2.709,0.993,3.948,0.947
		c22.206-0.83,44.418-1.037,66.635-0.984c1.438,0.004,2.876-0.051,4.314-0.078c2.223-0.264,3.343,2.104,5.54,2.023
		c-0.801,1.396-2.609,0.661-3.124,2.046c4.199,2.263,8.916,3.826,13.412,3.01c6.285-1.141,12.394-0.567,18.599-0.343
		c1.813,0.066,3.66-0.343,5.464-0.682c1.194-0.225,2.142-0.614,1.011-2.219c-0.618-0.878-0.651-2.232,0.959-2.648
		c19.188,0.638,38.347,1.832,57.494,3.212c0.49,0.035,0.964,0.286,1.446,0.437c-4.271,1.33-8.76,1.063-13.088,1.173
		c-14.251,0.362-28.408,1.566-42.571,3.074c-5.072,0.539-10.153,1.409-15.277,1.355c-2.164-0.023-3.053,0.75-2.834,2.857
		c-2.017,0.722-4.092-0.317-6.118,0.196c0.29-2.21-0.55-2.909-2.889-3.095c-9.136-0.723-18.292-0.187-27.412-0.656
		c-5.026-0.26-10.072-0.788-15.063-0.399c-9.552,0.743-19.108,0.205-28.649,0.59c-10.544,0.425-21.102,0.898-31.604,1.884
		c-12.422,1.164-24.876,2.119-37.214,4.103c-1.813,0.291-3.695,0.135-5.469,0.754c0-4.119,0-8.237,0-12.356
		c9.913-1.134,19.877-1.52,29.831-2.059c6.261-0.34,12.526-0.613,18.787-0.97c0.969-0.055,2.118,0.16,2.757-0.953
		C52.363,90.729,52.735,90.656,53.106,90.583z"/>
	<path fill-rule="evenodd" clip-rule="evenodd" fill="#78BD47" d="M883.473,110.258c-6.748-1.123-13.473-2.417-20.25-3.329
		c-9.738-1.311-19.522-2.273-29.271-3.512c-10.692-1.358-21.467-1.534-32.19-2.411c-3.776-0.308-7.576-0.364-11.36-0.57
		c-24.645-1.342-49.323-1.854-73.991-1.185c-10.227,0.277-20.473,0.922-30.703,1.514c-7.742,0.448-15.61,1-23.366-0.492
		c0.028-1.048,0.057-2.096,0.085-3.145c9.41-1.186,18.852-2.064,28.313-2.727c-0.001,1.429,0.942,1.503,2.071,1.644
		c3.95,0.492,7.904-0.177,11.821,0.042c9.071,0.507,18.158,0.145,27.21,0.155c8.946,0.012,17.936,0.037,26.898-0.068
		c6.095-0.071,12.261,0.046,18.357,0.075c9.054,0.043,18.156-0.375,27.203-0.084c7.402,0.238,14.829,0.146,22.189,0.064
		c8.754-0.097,17.521,0.2,26.287-0.098c7.607-0.259,15.278,0.253,22.881,0.152c8.379-0.11,16.774,0.175,25.151-0.266
		c0,5.973,0,11.945,0,17.918C895.1,112.388,889.308,111.222,883.473,110.258z"/>
	<path fill-rule="evenodd" clip-rule="evenodd" fill="#86C243" d="M900.81,96.019c-8.377,0.44-16.772,0.155-25.151,0.266
		c-7.603,0.101-15.273-0.411-22.881-0.152c-8.766,0.298-17.533,0.001-26.287,0.098c-7.36,0.081-14.787,0.174-22.189-0.064
		c-9.047-0.291-18.149,0.127-27.203,0.084c-6.097-0.029-12.263-0.146-18.357-0.075c-8.963,0.105-17.952,0.08-26.898,0.068
		c-9.052-0.011-18.139,0.352-27.21-0.155c-3.917-0.219-7.871,0.45-11.821-0.042c-1.129-0.141-2.072-0.215-2.071-1.644
		c22.946-2.171,45.965-3.152,68.989-3.784c19.031-0.522,38.073-0.917,57.117-0.685c0.309,0.003,0.623-0.039,0.926,0.004
		c1.908,0.268,2.301-0.784,2.093-2.374c1.861-0.172,3.638-1.18,5.579-0.575c-0.443,2.477,0.417,3.375,3.082,3.325
		c6.771-0.128,13.555-0.094,20.319,0.189c11.832,0.497,23.666,0.864,35.491,1.64c5.463,0.357,10.973,0.733,16.474,0.788
		C900.81,93.96,900.81,94.989,900.81,96.019z M818.05,93.669c0.597,0.576,1.195,0.576,1.793,0c4.071,0,8.142,0,12.212,0
		c-6.144-1.614-12.303-1.342-18.514-0.343c0.471,0.107,0.941,0.216,1.412,0.323c0.594,0.596,1.194,0.601,1.801,0.02
		C817.186,93.669,817.617,93.669,818.05,93.669z"/>
	<path fill-rule="evenodd" clip-rule="evenodd" fill="#86C243" d="M442.731,95.34c26.216-0.941,52.439-1.432,78.671-1.063
		c24.474,0.344,48.937,1.119,73.374,2.519c8.209,0.47,16.405,1.164,24.606,1.762c0.89,0.064,1.931-0.148,2.236,1.106
		c-1.804-0.46-3.63-0.588-5.494-0.586c-30.788,0.028-61.578-0.177-92.363,0.131c-12.495,0.125-24.997,0.792-37.494,1.229
		c-10.355,0.363-20.705,0.896-31.066,1.216c-6.859,0.213-13.693,1.282-20.576,1.136c-7.896-0.168-15.705-1.367-23.537-2.267
		c-6.31-0.725-12.625-1.407-18.938-2.109c6.162-1.122,12.426-1.128,18.644-1.524c7.771-0.496,15.546-1.21,23.353-0.951
		c1.907-0.26,4.098,2.468,5.742-0.546C440.836,95.374,441.784,95.357,442.731,95.34z"/>
	<path fill-rule="evenodd" clip-rule="evenodd" fill="#3B7F3F" d="M148.917,103.96c2.025-0.514,4.101,0.525,6.118-0.196
		c3.556,0.844,7.244,0.228,11.262,0.647c-3.138,2.179-25.683,1.659-28.664-0.451C141.505,103.96,145.211,103.96,148.917,103.96z"/>
	<path fill-rule="evenodd" clip-rule="evenodd" fill="#86C243" d="M662.426,97.128c-0.028,1.049-0.057,2.097-0.085,3.145
		c-2.074-0.009-4.149-0.018-6.224-0.024c-0.002-0.778-0.004-1.557-0.007-2.335c0.011-0.785,0.021-1.571,0.03-2.356
		c2.025-0.228,4.045-0.843,6.089-0.111C662.295,96.006,662.36,96.567,662.426,97.128z"/>
	<path fill-rule="evenodd" clip-rule="evenodd" fill="#78BD47" d="M656.11,97.913c0.003,0.778,0.005,1.557,0.007,2.335
		c-3.893-0.183-7.784-0.363-11.675-0.545C648.249,98.563,652.202,98.388,656.11,97.913z"/>
	<path fill-rule="evenodd" clip-rule="evenodd" fill="#3B7F3F" d="M662.229,95.445c-2.044-0.731-4.063-0.116-6.089,0.111
		c-4.208,0.477-7.868-1.686-11.775-2.596c-2.234-0.52-4.677-0.504-6.734-1.794c-0.395-0.247-1.076-0.096-1.089-0.821
		c-0.012-0.699,0.565-0.696,1.039-0.877c2.396-0.915,5.078-1.033,7.24-2.611c0.221-0.161,0.594-0.113,0.896-0.163
		c-0.892-3.732,3.179-2.859,4.347-4.682c7.212-0.371,14.426-0.764,21.516,1.153c2.526,1.013,5.018,2.135,7.598,2.986
		c1.021,0.338,1.153,1.08,1.562,1.759c-2.027,0.495-1.61,3.545-3.267,3.748c-3.173,0.388-5.495,2.751-8.561,3.139
		C666.691,95.077,664.457,95.233,662.229,95.445z"/>
	<path fill-rule="evenodd" clip-rule="evenodd" fill="#3B7F3F" d="M169.865,91.655c-1.61,0.416-1.578,1.771-0.959,2.648
		c1.13,1.604,0.183,1.994-1.011,2.219c-1.804,0.339-3.651,0.748-5.464,0.682c-6.205-0.225-12.314-0.798-18.599,0.343
		c-4.497,0.816-9.213-0.747-13.412-3.01c0.515-1.385,2.323-0.649,3.124-2.046c-2.196,0.081-3.316-2.287-5.54-2.023
		c2.409-2.204,5.298-3.085,8.506-3.104c2.52-0.016,4.975-0.412,7.473-0.787c7.071-1.063,14.216-0.636,21.063,1.627
		C166.837,88.794,168.268,90.475,169.865,91.655z"/>
	<path fill-rule="evenodd" clip-rule="evenodd" fill="#3B7F3F" d="M53.106,90.583c-0.372,0.073-0.743,0.146-1.114,0.219
		c-2.696-0.094-5.109-1.366-7.938-1.842c5.407-4.006,10.661-0.872,16.723-0.664C57.915,90.329,55.546,90.591,53.106,90.583z"/>
	<path fill-rule="evenodd" clip-rule="evenodd" fill="#3B7F3F" d="M442.731,95.34c-0.947,0.018-1.895,0.034-2.842,0.052
		c-1.771-0.185-3.542-0.37-5.312-0.555c-0.542-2.248,1.229-2.279,2.539-2.423c2.528-0.279,5.035,0.101,7.464,0.714
		C444.746,94.576,443.111,94.41,442.731,95.34z"/>
	<path fill-rule="evenodd" clip-rule="evenodd" fill="#78BD47" d="M434.577,94.837c1.771,0.185,3.542,0.37,5.312,0.555
		c-1.644,3.014-3.835,0.286-5.742,0.546C434.291,95.57,434.434,95.204,434.577,94.837z"/>
	<path fill-rule="evenodd" clip-rule="evenodd" fill="#3B7F3F" d="M819.864,87.563c-5.677,0.146-10.844-1.894-16.075-3.697
		c-1.727-0.595-3.607-0.45-5.394-1.103c-1.295-0.473-1.538-1.078-1.472-2.185c4.98-1.17,9.571-3.624,14.648-4.462
		c1.311-0.217,2.677-0.519,3.966-0.36c8.036,0.984,16.345,0.021,24.063,3.397c1.171,0.512,2.629,0.334,3.935,0.578
		c1.258,0.235,2.699,0.314,2.892,2.074c-1.573,1.33-3.359,2.055-5.45,1.985c-0.505-0.017-1.239-0.097-1.49,0.186
		c-3.958,4.472-9.255,2.537-14.043,3.01C823.502,86.383,821.726,87.391,819.864,87.563z"/>
	<path fill-rule="evenodd" clip-rule="evenodd" fill="#3B7F3F" d="M814.953,93.649c-0.471-0.107-0.941-0.216-1.412-0.323
		c6.211-0.999,12.37-1.271,18.514,0.343c-4.07,0-8.141,0-12.211,0c-0.599-0.001-1.196,0-1.794,0c-0.433,0-0.864,0-1.296,0
		C816.154,93.661,815.554,93.655,814.953,93.649z"/>
	<path fill-rule="evenodd" clip-rule="evenodd" fill="#78BD47" d="M814.953,93.649c0.601,0.006,1.201,0.012,1.801,0.02
		C816.147,94.25,815.547,94.245,814.953,93.649z"/>
	<path fill-rule="evenodd" clip-rule="evenodd" fill="#78BD47" d="M818.05,93.669c0.598,0,1.195-0.001,1.794,0
		C819.245,94.245,818.646,94.245,818.05,93.669z"/>
</g>
</svg>
