<?xml version="1.0" encoding="utf-8"?>
<!-- Generator: Adobe Illustrator 16.0.0, SVG Export Plug-In . SVG Version: 6.00 Build 0)  -->
<!DOCTYPE svg PUBLIC "-//W3C//DTD SVG 1.1//EN" "http://www.w3.org/Graphics/SVG/1.1/DTD/svg11.dtd">
<svg version="1.1" id="Layer_1" xmlns="http://www.w3.org/2000/svg" xmlns:xlink="http://www.w3.org/1999/xlink" x="0px" y="0px"
	 width="960px" height="560px" viewBox="0 0 960 560" enable-background="new 0 0 960 560" xml:space="preserve">
<g>
	<path fill="#FFFFFF" d="M608.233,419.92c0-19.321,0-38.168,0-57.479c-1.143,0-2.249,0-3.354,0
		c-19.548-0.001-39.093-0.009-58.638,0.006c-4.192,0.003-7.839-0.927-9.807-5.153c-2.117-4.549,0.115-9.975,4.91-11.44
		c1.621-0.496,3.407-0.617,5.121-0.621c19.446-0.041,38.896-0.026,58.347-0.026c1.038,0,2.076,0,3.272,0c0-24.551,0-48.865,0-74.06
		c-3.028,2.027-5.648,3.783-8.563,5.732c0.34-3.108,0.656-6.008,1.02-9.333c-6.393,3.806-11.5,8.569-16.434,14.635
		c-0.661-5.426,1.185-9.598,3.038-13.692c1.892-4.18,4.077-8.226,6.319-12.699c-10.742-1.126-19.837,3.771-29.378,6.49
		c-0.191-0.196-0.386-0.394-0.576-0.59c1.442-1.906,2.563-4.231,4.391-5.646c6.14-4.754,12.492-9.236,18.844-13.71
		c2.242-1.579,4.717-2.827,7.463-4.449c-11.438-6.279-23.099-4.536-35.536-2.913c11.541-12.2,25.009-16.343,41.146-13.856
		c-3.991-12.507-13.763-20.238-21.901-29.824c13.937-0.482,22.856,7.759,31.957,16.307c2.075-7.704,5.063-14.647,10.644-20.104
		c2.65-2.594,5.616-4.871,8.821-7.047c-4.624,9.603-5.089,19.676-4.718,30.466c11.385-5.512,22.857-6.273,35.212-1.799
		c-8.838,1.925-16.315,5.193-23.727,10.719c15.76,0.48,29.308,4.394,39.016,17.063c-10.395-2.436-20.814-3.784-31.923-1.739
		c8.849,7.965,15.759,17.053,21.616,27.923c-8.369-2.469-16.133-4.759-23.896-7.05c-0.165,0.201-0.33,0.401-0.494,0.602
		c4.296,8.807,6.012,18.173,6.546,28.495c-4.428-5.25-8.167-10.46-14.55-13.604c0.27,3.847,0.509,7.271,0.747,10.692
		c-0.197,0.071-0.396,0.145-0.595,0.216c-1.996-2.513-3.99-5.021-6.403-8.059c0,23.909,0,47.193,0,70.833c0.973,0,2.003,0,3.031,0
		c13.673,0,27.345-0.015,41.018,0.009c5.068,0.01,7.948,1.816,9.346,5.729c1.765,4.948-0.979,9.987-6.112,11.071
		c-1.396,0.295-2.856,0.407-4.291,0.409c-13.384,0.031-26.767,0.021-40.147,0.021c-1.036,0-2.072,0-3.406,0
		c0,24.854,0,49.447,0,74.18c-95.196,0-190.089,0-285.161,0c0-5.581,0-11.004,0-16.701C429.69,419.92,518.802,419.92,608.233,419.92
		z"/>
	<path fill="#FFFFFF" d="M503.634,164.069c0,41.49,0,82.754,0,124.511c-5.371-3.074-10.693-5.604-15.425-8.966
		c-5.182-3.682-9.593-3.956-14.871-0.14c-4.72,3.41-10.086,5.921-15.529,9.036c0-41.679,0-82.967,0-124.442
		C473.009,164.069,488.169,164.069,503.634,164.069z M499.727,209.172c0.084-10.752-8.324-19.327-19.008-19.388
		c-10.553-0.059-19.161,8.411-19.223,18.911c-0.062,10.757,8.109,19.188,18.722,19.316
		C491.092,228.143,499.643,219.886,499.727,209.172z"/>
	<path fill="#FFFFFF" d="M352.401,362.44c-20.793,0.001-41.586,0.025-62.378-0.046c-1.869-0.007-3.851-0.384-5.58-1.086
		c-3.104-1.262-5.024-4.716-4.808-7.887c0.256-3.725,2.48-6.688,6.018-7.619c1.647-0.436,3.415-0.573,5.128-0.575
		c41.104-0.03,82.209-0.03,123.313,0.002c1.808,0.001,3.676,0.144,5.413,0.607c3.845,1.028,6.213,4.291,6.161,8.072
		c-0.054,3.751-2.549,7.021-6.327,8.001c-1.468,0.382-3.037,0.505-4.563,0.507C393.987,362.45,373.194,362.44,352.401,362.44z"/>
	<path fill="#FFFFFF" d="M415.573,333.303c0.011-2.959,1.729-4.73,4.125-6.111c12.246-7.051,24.477-14.131,36.711-21.2
		c7.159-4.135,14.347-8.225,21.46-12.434c1.86-1.102,3.439-1.24,5.354-0.127c19.438,11.319,38.931,22.556,58.363,33.892
		c5.465,3.188,5.636,9.152,0.506,11.944c-2.771,1.507-5.213,0.433-7.609-0.942c-8.421-4.832-16.838-9.671-25.249-14.521
		c-8.662-4.993-17.353-9.941-25.949-15.045c-2.168-1.287-3.884-0.938-5.877,0.218c-16.046,9.313-32.122,18.579-48.194,27.845
		c-1.498,0.863-3.011,1.726-4.591,2.417C420.207,341.168,415.586,338.104,415.573,333.303z"/>
	<path fill="#FFFFFF" d="M480.57,41.306c7.896,16.088,15.448,31.482,23.144,47.162c-15.576,0-30.655,0-46.268,0
		C465.128,72.799,472.698,57.362,480.57,41.306z"/>
	<path fill="#FFFFFF" d="M469.008,376.1c0,9.818,0.016,19.641-0.008,29.462c-0.011,3.582-1.659,6.146-4.422,7.064
		c-3.578,1.19-7.168-0.59-8.259-4.222c-0.354-1.178-0.479-2.463-0.48-3.698c-0.029-19.063-0.033-38.127-0.014-57.188
		c0.007-4.723,1.914-7.557,5.317-8.131c4.513-0.767,7.823,2.222,7.85,7.251C469.044,356.458,469.008,366.279,469.008,376.1z"/>
	<path fill="#FFFFFF" d="M492.218,376.419c-0.001-9.813-0.03-19.628,0.013-29.44c0.021-4.753,2.444-7.577,6.396-7.662
		c3.931-0.084,6.516,2.57,6.657,7.071c0.137,4.229,0.121,8.464,0.116,12.695c-0.017,15.395-0.052,30.787-0.095,46.183
		c-0.015,4.436-1.979,7.104-5.503,7.58c-4.391,0.592-7.549-2.373-7.573-7.271C492.184,395.854,492.218,386.137,492.218,376.419z"/>
	<path fill="#FFFFFF" d="M437.715,375.822c0-9.72-0.027-19.44,0.012-29.16c0.016-4.054,1.999-6.71,5.223-7.25
		c4.201-0.705,7.522,1.946,7.813,6.402c0.197,3.066,0.235,6.149,0.229,9.227c-0.041,16.64-0.107,33.274-0.187,49.911
		c-0.021,4.509-1.924,7.33-5.224,7.868c-4.546,0.743-7.813-2.189-7.847-7.26C437.669,395.648,437.715,385.735,437.715,375.822z"/>
	<path fill="#FFFFFF" d="M523.412,376.108c-0.003,9.814,0.05,19.633-0.022,29.449c-0.035,4.746-2.574,7.427-6.644,7.34
		c-3.024-0.065-5.384-1.851-6.083-4.766c-0.267-1.107-0.326-2.286-0.327-3.436c-0.021-19.055-0.018-38.11-0.011-57.165
		c0-0.768,0.028-1.542,0.136-2.302c0.522-3.755,2.969-5.93,6.585-5.898c3.564,0.031,6.061,2.285,6.239,6.179
		c0.228,4.896,0.113,9.813,0.126,14.72C523.427,365.522,523.416,370.815,523.412,376.108z"/>
	<path fill="#FFFFFF" d="M474.112,376.047c0.001-9.807-0.144-19.614,0.118-29.415c0.055-2.059,1.08-4.648,2.563-6
		c3.52-3.201,9.058-0.938,10.002,3.787c0.24,1.211,0.211,2.487,0.212,3.733c0.012,18.648,0.01,37.301,0.005,55.952
		c0,0.96,0.019,1.93-0.101,2.88c-0.452,3.709-3.021,6.006-6.547,5.913c-3.465-0.091-6.042-2.587-6.205-6.281
		c-0.144-3.263-0.048-6.535-0.05-9.804C474.11,389.891,474.112,382.968,474.112,376.047z"/>
	<path fill="#FFFFFF" d="M329.668,403.266c0,8.855,0.033,17.714-0.017,26.57c-0.026,4.872-3.249,7.763-7.718,7.081
		c-3.511-0.536-5.332-2.844-5.347-7.053c-0.04-10.687-0.016-21.374-0.016-32.061c0-6.839-0.019-13.674,0.007-20.51
		c0.02-4.629,2.313-7.209,6.362-7.247c4.257-0.041,6.708,2.563,6.72,7.225C329.683,385.938,329.668,394.602,329.668,403.266z"/>
	<path fill="#FFFFFF" d="M680.473,404.023c0,8.748,0.032,17.498-0.014,26.248c-0.023,4.527-3.04,7.407-7.24,7.054
		c-2.798-0.233-4.674-1.72-5.438-4.394c-0.361-1.271-0.479-2.649-0.479-3.98c-0.031-16.729-0.021-33.459-0.021-50.188
		c0-0.289-0.005-0.577,0.001-0.866c0.104-4.771,2.781-7.863,6.69-7.729c4.099,0.145,6.492,3.036,6.498,7.895
		C680.479,386.717,680.474,395.369,680.473,404.023z"/>
	<path fill="#FFFFFF" d="M311.18,403.612c0,8.663,0.017,17.326-0.006,25.988c-0.015,4.704-2.447,7.373-6.628,7.37
		c-4.019-0.003-6.44-2.634-6.448-7.21c-0.029-17.522-0.029-35.046,0-52.566c0.008-4.63,2.347-7.142,6.456-7.146
		c4.268-0.004,6.607,2.538,6.621,7.283C311.196,386.093,311.18,394.853,311.18,403.612z"/>
	<path fill="#FFFFFF" d="M649.182,403.865c0.001-8.941-0.069-17.883,0.028-26.822c0.057-5.258,4.358-8.205,9.029-6.363
		c2.766,1.09,3.984,3.332,3.992,6.114c0.052,17.973,0.08,35.942-0.021,53.912c-0.024,4.151-2.695,6.528-6.542,6.457
		c-4.223-0.079-6.453-2.335-6.479-6.763C649.146,421.556,649.179,412.711,649.182,403.865z"/>
	<path fill="#FFFFFF" d="M644.073,403.755c-0.001,8.761,0.037,17.519-0.016,26.274c-0.028,4.771-2.682,7.356-7.082,7.135
		c-2.835-0.144-4.745-1.586-5.527-4.252c-0.425-1.447-0.541-3.03-0.544-4.555c-0.036-16.457-0.021-32.915-0.021-49.372
		c0-0.385-0.009-0.771,0.003-1.155c0.148-4.83,2.743-7.769,6.767-7.676c4.139,0.096,6.412,2.876,6.419,7.904
		C644.081,386.624,644.073,395.189,644.073,403.755z"/>
	<path fill="#FFFFFF" d="M292.788,403.443c0,8.654,0.136,17.313-0.104,25.96c-0.056,2.017-0.846,4.553-2.228,5.884
		c-3.808,3.665-9.24,1.837-10.328-3.5c-0.719-3.526-0.597-7.256-0.604-10.896c-0.027-14.521,0.009-29.041,0.089-43.563
		c0.03-5.329,3.229-8.107,8.041-7.208c3.185,0.595,5,3.051,5.021,7.066c0.044,8.752,0.014,17.503,0.014,26.254
		C292.723,403.443,292.755,403.443,292.788,403.443z"/>
	<path fill="#FFFFFF" d="M457.537,108.804c0-4.18,0-8.109,0-12.281c15.204,0,30.359,0,45.777,0c0,3.965,0,8.025,0,12.281
		C488.134,108.804,472.975,108.804,457.537,108.804z"/>
	<path fill="#FFFFFF" d="M553.827,391.429c0-5.098-0.144-10.196,0.053-15.284c0.131-3.413,2.292-5.507,5.528-6.033
		c3.771-0.61,6.813,1.867,7.332,6.332c0.355,3.043,0.37,6.137,0.37,9.207c-0.001,6.538-0.097,13.075-0.182,19.612
		c-0.04,3.072-0.996,5.729-3.962,7.139c-3.889,1.847-8.669-0.67-8.995-5.123c-0.388-5.257-0.091-10.563-0.091-15.849
		C553.865,391.429,553.847,391.429,553.827,391.429z"/>
	<path fill="#FFFFFF" d="M389.276,391.587c0,4.619,0.028,9.237-0.008,13.855c-0.037,4.662-2.508,7.431-6.572,7.454
		c-3.873,0.021-6.519-2.673-6.57-7.185c-0.11-9.522-0.12-19.052,0.008-28.573c0.06-4.434,2.886-7.183,6.736-7.072
		c3.888,0.107,6.365,2.932,6.398,7.377C389.303,382.158,389.276,386.873,389.276,391.587z"/>
	<path fill="#FFFFFF" d="M425.576,391.539c0,4.614,0.029,9.229-0.008,13.843c-0.038,4.756-2.429,7.491-6.476,7.518
		c-3.979,0.021-6.572-2.823-6.598-7.45c-0.048-9.327-0.044-18.654-0.002-27.982c0.021-4.65,2.599-7.447,6.646-7.4
		c3.801,0.044,6.39,2.96,6.427,7.345C425.609,382.117,425.577,386.828,425.576,391.539z"/>
	<path fill="#FFFFFF" d="M548.74,391.709c0,4.619,0.028,9.238-0.008,13.856c-0.036,4.479-2.477,7.238-6.396,7.331
		c-3.929,0.093-6.669-2.534-6.733-7.011c-0.138-9.523-0.124-19.054-0.011-28.575c0.053-4.5,2.729-7.251,6.576-7.25
		c3.983,0.002,6.541,2.894,6.566,7.505C548.763,382.28,548.74,386.994,548.74,391.709z"/>
	<path fill="#FFFFFF" d="M571.948,391.132c0-4.519-0.028-9.039,0.008-13.558c0.039-4.71,2.49-7.491,6.534-7.515
		c3.807-0.021,6.485,2.788,6.527,7.23c0.089,9.518,0.092,19.032-0.004,28.548c-0.046,4.513-2.637,7.104-6.628,7.059
		c-3.735-0.045-6.31-2.749-6.409-7.055C571.862,400.942,571.949,396.036,571.948,391.132z"/>
	<path fill="#FFFFFF" d="M490.68,136.331c0-4.611-0.233-9.244,0.104-13.833c0.151-2.036,0.936-4.663,2.388-5.791
		c1.528-1.188,4.315-1.51,6.345-1.119c2.625,0.509,4.1,2.938,4.127,5.637c0.103,10.185,0.151,20.374-0.03,30.556
		c-0.065,3.805-2.767,6.09-6.324,6.126c-3.52,0.036-6.252-2.231-6.438-6.014c-0.258-5.177-0.064-10.373-0.064-15.563
		C490.747,136.331,490.714,136.331,490.68,136.331z"/>
	<path fill="#FFFFFF" d="M352.876,391.592c0,4.614,0.026,9.229-0.01,13.843c-0.035,4.413-2.338,7.253-5.968,7.461
		c-4.053,0.23-7.006-2.316-7.105-6.945c-0.214-9.702-0.201-19.416,0.009-29.119c0.094-4.333,2.946-6.854,6.707-6.761
		c3.871,0.1,6.314,2.896,6.355,7.394C352.908,382.172,352.876,386.882,352.876,391.592z"/>
	<path fill="#FFFFFF" d="M487.011,136.356c0.004,4.708,0.052,9.417-0.011,14.125c-0.063,4.759-2.509,7.471-6.565,7.439
		c-3.8-0.025-6.464-2.853-6.479-7.292c-0.029-9.7-0.017-19.404,0.211-29.104c0.099-4.167,2.773-6.467,6.613-6.369
		c3.83,0.098,6.132,2.526,6.207,6.786C487.071,126.746,487.007,131.552,487.011,136.356z"/>
	<path fill="#FFFFFF" d="M603.146,391.28c0,4.707,0.047,9.415-0.013,14.122c-0.063,4.784-2.472,7.512-6.479,7.495
		c-3.995-0.02-6.521-2.74-6.566-7.468c-0.091-9.318-0.035-18.64-0.014-27.957c0.002-0.856,0.119-1.734,0.332-2.563
		c0.806-3.133,3.739-5.138,6.95-4.813c3.215,0.322,5.543,2.64,5.671,6.199c0.178,4.988,0.045,9.988,0.045,14.983
		C603.098,391.28,603.119,391.28,603.146,391.28z"/>
	<path fill="#FFFFFF" d="M371.072,391.377c0,4.705,0.058,9.412-0.016,14.116c-0.072,4.713-2.563,7.441-6.59,7.404
		c-3.913-0.036-6.42-2.723-6.456-7.262c-0.076-9.518-0.078-19.032,0.007-28.55c0.034-3.836,2.067-6.277,5.317-6.898
		c2.878-0.551,5.771,0.788,6.92,3.454c0.516,1.195,0.757,2.593,0.782,3.903C371.128,382.155,371.073,386.768,371.072,391.377z"/>
	<path fill="#FFFFFF" d="M457.441,136.52c0-4.997-0.078-9.995,0.025-14.99c0.08-3.901,2.59-6.417,6.216-6.523
		c3.464-0.102,6.384,2.538,6.491,6.339c0.175,6.24,0.079,12.49,0.086,18.737c0.004,3.749,0.075,7.499-0.043,11.244
		c-0.13,4.117-2.721,6.663-6.453,6.579c-3.824-0.086-6.226-2.546-6.293-6.683c-0.082-4.899-0.021-9.803-0.021-14.702
		C457.447,136.52,457.444,136.52,457.441,136.52z"/>
	<path fill="#FFFFFF" d="M407.28,391.418c0.001,4.72,0.048,9.438-0.013,14.154c-0.06,4.584-2.479,7.305-6.363,7.325
		c-4.063,0.021-6.503-2.723-6.517-7.448c-0.027-9.341-0.027-18.681,0.001-28.021c0.014-4.499,2.428-7.254,6.341-7.367
		c3.804-0.113,6.465,2.748,6.533,7.202C407.334,381.98,407.279,386.699,407.28,391.418z"/>
</g>
</svg>
