<?xml version="1.0" encoding="utf-8"?>
<!-- Generator: Adobe Illustrator 16.0.0, SVG Export Plug-In . SVG Version: 6.00 Build 0)  -->
<!DOCTYPE svg PUBLIC "-//W3C//DTD SVG 1.1//EN" "http://www.w3.org/Graphics/SVG/1.1/DTD/svg11.dtd">
<svg version="1.1" id="Layer_1" xmlns="http://www.w3.org/2000/svg" xmlns:xlink="http://www.w3.org/1999/xlink" x="0px" y="0px"
	 width="960px" height="560px" viewBox="0 0 960 560" enable-background="new 0 0 960 560" xml:space="preserve">
<g>
	<path fill-rule="evenodd" clip-rule="evenodd" d="M608.233,419.92c0-19.323,0-38.168,0-57.479c-1.143,0-2.249,0-3.355,0
		c-19.546-0.001-39.091-0.009-58.636,0.006c-4.194,0.003-7.839-0.927-9.807-5.153c-2.117-4.549,0.115-9.975,4.91-11.442
		c1.621-0.496,3.408-0.617,5.121-0.621c19.448-0.041,38.897-0.026,58.347-0.026c1.038,0,2.076,0,3.274,0c0-24.551,0-48.865,0-74.06
		c-3.03,2.029-5.65,3.783-8.565,5.734c0.34-3.11,0.656-6.008,1.02-9.333c-6.393,3.804-11.5,8.569-16.434,14.633
		c-0.661-5.424,1.185-9.596,3.038-13.692c1.892-4.18,4.077-8.226,6.319-12.699c-10.742-1.126-19.835,3.771-29.377,6.49
		c-0.192-0.196-0.385-0.394-0.577-0.59c1.444-1.906,2.564-4.231,4.391-5.646c6.14-4.754,12.492-9.238,18.844-13.71
		c2.242-1.579,4.717-2.827,7.463-4.449c-11.438-6.281-23.099-4.538-35.537-2.915c11.542-12.2,25.008-16.341,41.145-13.856
		c-3.991-12.507-13.763-20.238-21.901-29.824c13.935-0.484,22.856,7.759,31.957,16.305c2.075-7.704,5.063-14.647,10.642-20.102
		c2.652-2.594,5.616-4.871,8.822-7.047c-4.624,9.603-5.088,19.676-4.717,30.466c11.384-5.512,22.857-6.275,35.212-1.799
		c-8.838,1.925-16.317,5.193-23.727,10.719c15.76,0.48,29.308,4.392,39.016,17.063c-10.395-2.434-20.816-3.784-31.923-1.739
		c8.848,7.965,15.759,17.053,21.616,27.923c-8.369-2.469-16.133-4.759-23.896-7.05c-0.165,0.201-0.33,0.401-0.495,0.602
		c4.296,8.805,6.012,18.171,6.546,28.495c-4.427-5.25-8.167-10.46-14.549-13.604c0.269,3.847,0.508,7.271,0.747,10.694
		c-0.198,0.071-0.396,0.143-0.594,0.214c-1.996-2.511-3.991-5.021-6.404-8.057c0,23.909,0,47.193,0,70.833c0.972,0,2.002,0,3.032,0
		c13.672,0,27.344-0.015,41.016,0.009c5.07,0.008,7.949,1.816,9.346,5.727c1.765,4.948-0.979,9.987-6.112,11.071
		c-1.398,0.295-2.858,0.409-4.291,0.411c-13.384,0.031-26.767,0.019-40.149,0.02c-1.036,0-2.072,0-3.406,0
		c0,24.855,0,49.447,0,74.18c-95.196,0-190.089,0-285.161,0c0-5.581,0-11.004,0-16.701C429.69,419.92,518.802,419.92,608.233,419.92
		z"/>
	<path fill-rule="evenodd" clip-rule="evenodd" d="M503.634,164.069c0,41.49,0,82.754,0,124.511
		c-5.371-3.074-10.693-5.604-15.424-8.966c-5.181-3.682-9.592-3.956-14.872-0.14c-4.718,3.41-10.086,5.921-15.529,9.036
		c0-41.677,0-82.965,0-124.442C473.009,164.069,488.169,164.069,503.634,164.069z M499.727,209.172
		c0.084-10.752-8.324-19.329-19.008-19.388c-10.553-0.059-19.161,8.411-19.221,18.911c-0.062,10.757,8.109,19.189,18.72,19.316
		C491.092,228.143,499.643,219.886,499.727,209.172z"/>
	<path fill-rule="evenodd" clip-rule="evenodd" d="M352.401,362.44c-20.793,0.001-41.586,0.027-62.378-0.046
		c-1.869-0.007-3.851-0.384-5.58-1.086c-3.104-1.26-5.026-4.716-4.808-7.885c0.256-3.725,2.48-6.689,6.018-7.621
		c1.647-0.434,3.415-0.573,5.128-0.575c41.104-0.03,82.209-0.03,123.313,0.002c1.808,0.001,3.676,0.144,5.413,0.609
		c3.845,1.028,6.213,4.291,6.161,8.072c-0.052,3.751-2.547,7.019-6.327,8.001c-1.467,0.382-3.037,0.505-4.561,0.507
		C393.987,362.45,373.194,362.44,352.401,362.44z"/>
	<path fill-rule="evenodd" clip-rule="evenodd" d="M415.575,333.303c0.009-2.959,1.727-4.73,4.125-6.111
		c12.246-7.051,24.475-14.131,36.711-21.2c7.159-4.135,14.345-8.225,21.46-12.434c1.86-1.1,3.439-1.24,5.352-0.127
		c19.44,11.321,38.931,22.556,58.363,33.892c5.465,3.188,5.636,9.152,0.506,11.944c-2.77,1.507-5.213,0.433-7.609-0.942
		c-8.421-4.832-16.838-9.671-25.249-14.521c-8.662-4.993-17.353-9.941-25.949-15.045c-2.168-1.287-3.884-0.938-5.877,0.218
		c-16.046,9.313-32.122,18.579-48.196,27.845c-1.498,0.863-3.009,1.726-4.589,2.417
		C420.208,341.168,415.586,338.104,415.575,333.303z"/>
	<path fill-rule="evenodd" clip-rule="evenodd" d="M480.57,41.306c7.895,16.088,15.448,31.484,23.142,47.162
		c-15.576,0-30.655,0-46.266,0C465.128,72.799,472.698,57.362,480.57,41.306z"/>
	<path fill-rule="evenodd" clip-rule="evenodd" d="M469.008,376.1c0,9.82,0.016,19.641-0.008,29.462
		c-0.009,3.582-1.659,6.146-4.42,7.066c-3.579,1.19-7.168-0.59-8.259-4.222c-0.354-1.178-0.48-2.463-0.482-3.698
		c-0.029-19.063-0.033-38.127-0.012-57.19c0.005-4.721,1.914-7.555,5.317-8.131c4.513-0.765,7.823,2.222,7.85,7.251
		C469.044,356.458,469.008,366.279,469.008,376.1z"/>
	<path fill-rule="evenodd" clip-rule="evenodd" d="M492.218,376.419c-0.001-9.814-0.03-19.628,0.013-29.442
		c0.021-4.753,2.444-7.577,6.396-7.662c3.931-0.084,6.516,2.57,6.659,7.071c0.135,4.229,0.121,8.464,0.116,12.697
		c-0.017,15.393-0.052,30.787-0.095,46.181c-0.013,4.436-1.977,7.105-5.503,7.58c-4.389,0.592-7.549-2.373-7.573-7.271
		C492.184,395.854,492.218,386.137,492.218,376.419z"/>
	<path fill-rule="evenodd" clip-rule="evenodd" d="M437.715,375.822c0-9.72-0.027-19.44,0.012-29.16
		c0.016-4.054,1.999-6.71,5.223-7.25c4.201-0.705,7.522,1.946,7.811,6.402c0.199,3.068,0.237,6.151,0.229,9.227
		c-0.041,16.638-0.109,33.274-0.187,49.911c-0.021,4.509-1.924,7.33-5.222,7.868c-4.546,0.743-7.813-2.189-7.847-7.26
		C437.669,395.648,437.715,385.735,437.715,375.822z"/>
	<path fill-rule="evenodd" clip-rule="evenodd" d="M523.414,376.108c-0.003,9.816,0.048,19.633-0.024,29.449
		c-0.035,4.746-2.574,7.427-6.642,7.34c-3.026-0.065-5.384-1.849-6.083-4.764c-0.267-1.109-0.328-2.288-0.329-3.436
		c-0.02-19.055-0.016-38.11-0.009-57.165c0-0.768,0.028-1.542,0.134-2.302c0.524-3.755,2.969-5.929,6.585-5.898
		c3.566,0.031,6.061,2.285,6.241,6.178c0.226,4.897,0.113,9.812,0.126,14.719C523.427,365.522,523.416,370.815,523.414,376.108z"/>
	<path fill-rule="evenodd" clip-rule="evenodd" d="M474.112,376.047c0.001-9.807-0.144-19.616,0.118-29.415
		c0.055-2.059,1.08-4.65,2.563-6c3.52-3.203,9.058-0.939,10.002,3.787c0.242,1.211,0.211,2.487,0.212,3.733
		c0.012,18.65,0.01,37.301,0.005,55.952c0,0.96,0.019,1.93-0.099,2.88c-0.454,3.709-3.023,6.006-6.547,5.913
		c-3.465-0.091-6.042-2.587-6.205-6.281c-0.144-3.263-0.048-6.535-0.05-9.804C474.11,389.891,474.112,382.968,474.112,376.047z"/>
	<path fill-rule="evenodd" clip-rule="evenodd" d="M329.668,403.266c0,8.857,0.035,17.714-0.015,26.57
		c-0.027,4.872-3.249,7.763-7.718,7.081c-3.511-0.536-5.332-2.842-5.347-7.051c-0.04-10.687-0.014-21.374-0.014-32.061
		c0-6.837-0.019-13.672,0.007-20.508c0.018-4.629,2.313-7.209,6.362-7.247c4.257-0.041,6.708,2.563,6.72,7.223
		C329.683,385.938,329.668,394.602,329.668,403.266z"/>
	<path fill-rule="evenodd" clip-rule="evenodd" d="M680.473,404.023c0,8.748,0.032,17.498-0.014,26.248
		c-0.023,4.527-3.04,7.407-7.24,7.054c-2.798-0.235-4.674-1.72-5.437-4.394c-0.363-1.271-0.479-2.649-0.48-3.98
		c-0.031-16.729-0.02-33.459-0.02-50.188c0-0.289-0.005-0.577,0.001-0.866c0.103-4.771,2.781-7.863,6.69-7.727
		c4.099,0.143,6.492,3.036,6.498,7.893C680.479,386.717,680.474,395.369,680.473,404.023z"/>
	<path fill-rule="evenodd" clip-rule="evenodd" d="M311.18,403.612c0,8.663,0.017,17.326-0.006,25.988
		c-0.013,4.704-2.447,7.373-6.628,7.37c-4.017-0.003-6.44-2.634-6.448-7.21c-0.029-17.522-0.029-35.044,0-52.566
		c0.008-4.63,2.347-7.142,6.456-7.145c4.268-0.004,6.609,2.538,6.621,7.283C311.196,386.093,311.18,394.853,311.18,403.612z"/>
	<path fill-rule="evenodd" clip-rule="evenodd" d="M649.182,403.865c0.001-8.941-0.069-17.883,0.028-26.822
		c0.057-5.258,4.36-8.205,9.031-6.365c2.764,1.09,3.984,3.332,3.992,6.116c0.052,17.971,0.08,35.942-0.021,53.912
		c-0.024,4.151-2.695,6.528-6.542,6.457c-4.221-0.079-6.453-2.335-6.477-6.763C649.146,421.556,649.179,412.711,649.182,403.865z"/>
	<path fill-rule="evenodd" clip-rule="evenodd" d="M644.073,403.755c-0.001,8.759,0.037,17.517-0.016,26.274
		c-0.028,4.77-2.682,7.356-7.082,7.135c-2.835-0.144-4.745-1.586-5.527-4.252c-0.425-1.449-0.541-3.032-0.544-4.555
		c-0.036-16.457-0.022-32.915-0.022-49.372c0-0.385-0.009-0.771,0.003-1.155c0.15-4.83,2.743-7.769,6.767-7.676
		c4.137,0.096,6.412,2.876,6.419,7.904C644.083,386.624,644.074,395.189,644.073,403.755z"/>
	<path fill-rule="evenodd" clip-rule="evenodd" d="M292.788,403.443c0,8.654,0.136,17.313-0.102,25.96
		c-0.056,2.015-0.846,4.553-2.228,5.884c-3.806,3.665-9.24,1.837-10.328-3.5c-0.719-3.528-0.597-7.256-0.604-10.896
		c-0.029-14.521,0.007-29.041,0.089-43.561c0.03-5.329,3.229-8.109,8.041-7.208c3.183,0.595,5,3.051,5.021,7.066
		c0.044,8.752,0.014,17.503,0.014,26.254C292.723,403.443,292.755,403.443,292.788,403.443z"/>
	<path fill-rule="evenodd" clip-rule="evenodd" d="M457.539,108.804c0-4.178,0-8.109,0-12.281c15.204,0,30.359,0,45.777,0
		c0,3.965,0,8.027,0,12.281C488.134,108.804,472.975,108.804,457.539,108.804z"/>
	<path fill-rule="evenodd" clip-rule="evenodd" d="M553.829,391.429c0-5.096-0.144-10.196,0.051-15.284
		c0.131-3.413,2.292-5.507,5.53-6.033c3.77-0.61,6.811,1.867,7.332,6.332c0.355,3.043,0.37,6.137,0.37,9.207
		c-0.001,6.538-0.097,13.075-0.182,19.612c-0.04,3.074-0.996,5.729-3.962,7.139c-3.887,1.847-8.669-0.67-8.995-5.123
		c-0.387-5.257-0.091-10.563-0.091-15.849C553.865,391.429,553.847,391.429,553.829,391.429z"/>
	<path fill-rule="evenodd" clip-rule="evenodd" d="M389.276,391.587c0,4.619,0.028,9.237-0.008,13.855
		c-0.037,4.662-2.508,7.431-6.572,7.454c-3.873,0.023-6.519-2.673-6.571-7.183c-0.111-9.524-0.121-19.052,0.007-28.575
		c0.06-4.432,2.886-7.181,6.738-7.072c3.886,0.109,6.365,2.932,6.398,7.377C389.303,382.158,389.276,386.873,389.276,391.587z"/>
	<path fill-rule="evenodd" clip-rule="evenodd" d="M425.578,391.539c0,4.614,0.029,9.229-0.008,13.843
		c-0.038,4.754-2.429,7.491-6.476,7.516c-3.979,0.022-6.572-2.823-6.596-7.45c-0.048-9.327-0.044-18.654-0.002-27.982
		c0.021-4.652,2.597-7.449,6.646-7.402c3.801,0.044,6.39,2.96,6.427,7.345C425.609,382.117,425.579,386.828,425.578,391.539z"/>
	<path fill-rule="evenodd" clip-rule="evenodd" d="M548.741,391.709c0,4.619,0.028,9.238-0.008,13.856
		c-0.036,4.479-2.477,7.238-6.398,7.331c-3.927,0.093-6.669-2.534-6.733-7.011c-0.138-9.523-0.124-19.052-0.011-28.575
		c0.053-4.5,2.731-7.251,6.576-7.25c3.985,0.002,6.541,2.894,6.568,7.505C548.763,382.28,548.741,386.994,548.741,391.709z"/>
	<path fill-rule="evenodd" clip-rule="evenodd" d="M571.95,391.132c0-4.519-0.03-9.039,0.008-13.558
		c0.039-4.71,2.49-7.491,6.534-7.515c3.805-0.021,6.485,2.788,6.527,7.232c0.089,9.516,0.092,19.032-0.004,28.548
		c-0.046,4.511-2.636,7.104-6.628,7.057c-3.735-0.045-6.308-2.749-6.409-7.053C571.862,400.942,571.951,396.036,571.95,391.132z"/>
	<path fill-rule="evenodd" clip-rule="evenodd" d="M490.68,136.331c0-4.613-0.233-9.244,0.106-13.833
		c0.151-2.036,0.934-4.663,2.386-5.791c1.53-1.188,4.317-1.51,6.345-1.119c2.625,0.507,4.1,2.938,4.127,5.635
		c0.103,10.185,0.151,20.374-0.03,30.556c-0.067,3.805-2.767,6.09-6.324,6.126c-3.52,0.036-6.252-2.231-6.44-6.014
		c-0.258-5.175-0.064-10.373-0.064-15.562C490.749,136.331,490.714,136.331,490.68,136.331z"/>
	<path fill-rule="evenodd" clip-rule="evenodd" d="M352.876,391.592c0,4.614,0.028,9.228-0.008,13.841
		c-0.035,4.413-2.338,7.253-5.968,7.461c-4.053,0.232-7.006-2.316-7.107-6.945c-0.212-9.702-0.201-19.416,0.009-29.119
		c0.094-4.333,2.947-6.856,6.707-6.761c3.871,0.1,6.316,2.896,6.357,7.394C352.91,382.172,352.876,386.882,352.876,391.592z"/>
	<path fill-rule="evenodd" clip-rule="evenodd" d="M487.011,136.356c0.004,4.708,0.052,9.417-0.01,14.125
		c-0.063,4.759-2.508,7.471-6.566,7.441c-3.8-0.027-6.464-2.853-6.479-7.292c-0.031-9.702-0.017-19.406,0.211-29.104
		c0.097-4.167,2.773-6.467,6.613-6.369c3.83,0.098,6.132,2.526,6.207,6.786C487.071,126.746,487.007,131.551,487.011,136.356z"/>
	<path fill-rule="evenodd" clip-rule="evenodd" d="M603.146,391.28c0,4.707,0.047,9.415-0.013,14.122
		c-0.061,4.784-2.47,7.512-6.478,7.495c-3.995-0.018-6.523-2.74-6.568-7.468c-0.089-9.318-0.035-18.638-0.012-27.957
		c0.002-0.856,0.119-1.734,0.332-2.563c0.804-3.133,3.739-5.138,6.95-4.813c3.215,0.324,5.543,2.64,5.671,6.201
		c0.178,4.988,0.045,9.988,0.045,14.983C603.098,391.28,603.121,391.28,603.146,391.28z"/>
	<path fill-rule="evenodd" clip-rule="evenodd" d="M371.072,391.377c0,4.705,0.056,9.412-0.016,14.116
		c-0.072,4.713-2.563,7.441-6.59,7.404c-3.913-0.036-6.42-2.721-6.456-7.262c-0.076-9.516-0.078-19.032,0.007-28.548
		c0.034-3.836,2.067-6.279,5.318-6.9c2.877-0.551,5.77,0.788,6.919,3.454c0.516,1.197,0.757,2.593,0.784,3.905
		C371.128,382.155,371.073,386.768,371.072,391.377z"/>
	<path fill-rule="evenodd" clip-rule="evenodd" d="M457.441,136.52c0-4.997-0.078-9.995,0.025-14.99
		c0.08-3.901,2.59-6.417,6.216-6.523c3.464-0.102,6.384,2.538,6.491,6.337c0.175,6.242,0.079,12.492,0.086,18.739
		c0.004,3.749,0.075,7.499-0.043,11.244c-0.13,4.117-2.719,6.663-6.453,6.579c-3.824-0.086-6.224-2.546-6.293-6.683
		c-0.082-4.899-0.02-9.801-0.02-14.702C457.447,136.52,457.444,136.52,457.441,136.52z"/>
	<path fill-rule="evenodd" clip-rule="evenodd" d="M407.28,391.418c0.001,4.718,0.048,9.437-0.013,14.154
		c-0.06,4.584-2.477,7.305-6.363,7.325c-4.063,0.021-6.503-2.721-6.517-7.448c-0.027-9.341-0.027-18.681,0.001-28.021
		c0.014-4.499,2.428-7.252,6.341-7.367c3.804-0.113,6.465,2.748,6.533,7.202C407.335,381.98,407.279,386.699,407.28,391.418z"/>
</g>
</svg>
